<svg xmlns="http://www.w3.org/2000/svg"><symbol id="headerx3-copy" viewBox="0 0 1893 267.54"><path fill="none" stroke="#00f" stroke-linecap="round" stroke-miterlimit="10" stroke-width="6" d="M871.74 152.34h-260.2m0-48.53v48.53m-455.63-48.53h455.63m248.42 18.2H580.93m0-41.25v41.25M313.67 80.76h267.26M904.7 183.89l-355.56-1.22m0-35.18v35.18m-350.85-35.18h350.85m308.47-44.89H646.86m0-50.96v50.96M223.02 51.64h423.84M935 194.5l-533.02 2.73m0-65.52v65.52M9.92 131.71h392.06M838 91.5l-147.57.18m0 81.28V91.68m-442.69 81.29l442.69-.01M865.85 64.99H737.52m0 69.15V64.99m-297.87 69.15h297.87m135.4-82.5h-77.71m0 156.51V51.64M356.06 208.15h439.15m226.42-55.89h260.19m0-48.53v48.53m455.63-48.53h-455.63m-248.78 18.28l279.39-.08m0-41.25v41.25m267.26-41.25h-267.26M1000 183.5l344.22-.91m0-35.18v35.18m350.85-35.18h-350.85m-308.47-44.89h210.75m0-50.96v50.96m423.85-50.96H1246.5M980.5 196l510.9 1.15m-.01-65.51v65.51m392.06-65.51h-392.06M1034.58 91.6h168.36m0 81.29V91.6m442.68 81.29h-442.68M1027.51 64.91h128.33m0 69.15V64.91m297.87 69.15h-297.87m-135.39-82.5h77.7m0 156.51V51.56m439.16 156.51h-439.16"/><ellipse cx="218.31" cy="51.64" fill="#fff" stroke="#00f" stroke-miterlimit="10" rx="4.71" ry="4.85"/><ellipse cx="218.31" cy="51.64" stroke="#000" stroke-miterlimit="10" rx="2.35" ry="2.43"/><ellipse cx="151.2" cy="103.81" fill="#fff" stroke="#00f" stroke-miterlimit="10" rx="4.71" ry="4.85"/><ellipse cx="308.97" cy="80.76" fill="#fff" stroke="#00f" stroke-miterlimit="10" rx="4.71" ry="4.85"/><ellipse cx="308.97" cy="80.76" stroke="#000" stroke-miterlimit="10" rx="2.35" ry="2.43"/><ellipse cx="5.21" cy="131.71" fill="#fff" stroke="#00f" stroke-miterlimit="10" rx="4.71" ry="4.85"/><ellipse cx="5.21" cy="131.71" stroke="#000" stroke-miterlimit="10" rx="2.35" ry="2.43"/><ellipse cx="193.59" cy="147.49" fill="#fff" stroke="#00f" stroke-miterlimit="10" rx="4.71" ry="4.85"/><ellipse cx="193.59" cy="147.49" stroke="#000" stroke-miterlimit="10" rx="2.35" ry="2.43"/><ellipse cx="243.03" cy="172.96" fill="#fff" stroke="#00f" stroke-miterlimit="10" rx="4.71" ry="4.85"/><ellipse cx="351.35" cy="208.15" fill="#fff" stroke="#00f" stroke-miterlimit="10" rx="4.71" ry="4.85"/><ellipse cx="351.35" cy="208.15" stroke="#000" stroke-miterlimit="10" rx="2.35" ry="2.43"/><ellipse cx="434.94" cy="134.14" fill="#fff" stroke="#00f" stroke-miterlimit="10" rx="4.71" ry="4.85"/><ellipse cx="434.94" cy="134.14" stroke="#000" stroke-miterlimit="10" rx="2.35" ry="2.43"/><ellipse cx="1674.69" cy="51.64" fill="#fff" stroke="#00f" stroke-linecap="round" stroke-miterlimit="10" rx="4.71" ry="4.85"/><ellipse cx="1674.69" cy="51.64" stroke="#000" stroke-linecap="round" stroke-miterlimit="10" rx="2.35" ry="2.43"/><ellipse cx="1584.03" cy="80.76" fill="#fff" stroke="#00f" stroke-linecap="round" stroke-miterlimit="10" rx="4.71" ry="4.85"/><ellipse cx="1459.24" cy="134.14" fill="none" stroke="#00f" stroke-linecap="round" stroke-miterlimit="10" stroke-width="3" rx="4.71" ry="4.85"/><ellipse cx="1459.24" cy="134.14" stroke="#00f" stroke-linecap="round" stroke-miterlimit="10" stroke-width="3" rx="2.35" ry="2.43"/><ellipse cx="1741.8" cy="103.81" fill="#fff" stroke="#00f" stroke-linecap="round" stroke-miterlimit="10" rx="4.71" ry="4.85"/><ellipse cx="1741.8" cy="103.81" stroke="#000" stroke-linecap="round" stroke-miterlimit="10" rx="2.35" ry="2.43"/><ellipse cx="1887.79" cy="131.71" fill="#fff" stroke="#00f" stroke-miterlimit="10" rx="4.71" ry="4.85"/><ellipse cx="1887.79" cy="131.71" stroke="#000" stroke-miterlimit="10" rx="2.35" ry="2.43"/><ellipse cx="1699.41" cy="147.49" fill="#fff" stroke="#00f" stroke-linecap="round" stroke-miterlimit="10" rx="4.71" ry="4.85"/><ellipse cx="1699.41" cy="147.49" stroke="#000" stroke-linecap="round" stroke-miterlimit="10" rx="2.35" ry="2.43"/><ellipse cx="1649.97" cy="172.96" fill="#fff" stroke="#00f" stroke-linecap="round" stroke-miterlimit="10" rx="4.71" ry="4.85"/><ellipse cx="1649.97" cy="172.96" rx="2.35" ry="2.43"/><ellipse cx="1542.83" cy="208.15" fill="#fff" stroke="#00f" stroke-linecap="round" stroke-miterlimit="10" rx="4.71" ry="4.85"/><path fill="none" stroke="#00f" stroke-miterlimit="10" d="M946.49 57.74l53.57-.41"/><path fill="#fff" d="M1002.42 59.85a2.54 2.54 0 1 1 2.44-2.55 2.5 2.5 0 0 1-2.44 2.55z"/><path fill="#00f" d="M1002.42 54.28v1a2 2 0 1 1-1.95 2.05 2 2 0 0 1 1.95-2.05v-1m0 0a3.035 3.035 0 0 0 0 6.07 3.035 3.035 0 0 0 0-6.07z"/><path fill="#fff" d="M904.64 49.93a.36.36 0 0 1 0-.71.35.35 0 0 1 .34.35.35.35 0 0 1-.34.36z"/><path fill="#00f" d="M904.64 49a.61.61 0 0 0 0 1.21.61.61 0 0 0 0-1.21z"/><path fill="#00f" d="M946.5 3c37.7 0 73.14 13.63 99.78 38.38s41.22 57.5 41.22 92.39-14.64 67.7-41.22 92.4-62.08 38.37-99.78 38.37-73.14-13.63-99.78-38.37-41.22-57.51-41.22-92.4 14.64-67.7 41.22-92.39S908.8 3 946.5 3m0-3c-79.53 0-144 59.89-144 133.77s64.47 133.77 144 133.77 144-59.89 144-133.77S1026.03 0 946.5 0z"/><path fill="none" stroke="#00f" stroke-miterlimit="10" d="M946.92 2.69l.52 65.12"/><path fill="none" stroke="#00f" stroke-linecap="round" stroke-miterlimit="10" d="M935.55 2.77l.42 52.8m-7.99-50.99l.5 61.6m-8.07-61.55l.33 42.24"/><path fill="none" stroke="#00f" stroke-miterlimit="10" d="M916.63 6.42l.1 12.32m-3.89-12.3l.1 12.32"/><path fill="none" stroke="#00f" stroke-linecap="round" stroke-miterlimit="10" d="M909.07 8.23l.26 33.44"/><path fill="none" stroke="#00f" stroke-miterlimit="10" d="M905.28 8.26l.14 17.6"/><path fill="none" stroke="#00f" stroke-linecap="round" stroke-miterlimit="10" d="M901.5 10.04l.14 17.6m-3.91-15.81l.11 14.08m-3.9-14.05l.14 17.6m-3.92-15.82l.09 10.56m-3.86-8.77l.07 8.8m-3.85-7.02l.07 8.8M878.83 19l.1 12.32m-3.87-10.53l.07 8.8m-3.85-7.02l.07 8.8m-3.83-5.25l.03 3.52"/><path fill="none" stroke="#00f" stroke-miterlimit="10" d="M881.03 55.95l54.94-.38m-47.28 10.89l39.79-.28m-34.26-19.12l26.52-.19m-47.41-4.95l36-.25"/><path fill="#fff" d="M886.79 68.86a2.51 2.51 0 0 1-2.59-2.37 2.33 2.33 0 0 1 .68-1.63 2.7 2.7 0 0 1 1.89-.78 2.52 2.52 0 0 1 2.62 2.37 2.31 2.31 0 0 1-.68 1.63 2.67 2.67 0 0 1-1.9.78z"/><path fill="#00f" d="M886.79 63.83v.5a2.26 2.26 0 0 1 2.35 2.13 2.06 2.06 0 0 1-.6 1.44 2.44 2.44 0 0 1-1.75.71 2.25 2.25 0 0 1-2.34-2.12 2.06 2.06 0 0 1 .6-1.45 2.47 2.47 0 0 1 1.73-.71v-.5m0 0a2.65 2.65 0 1 0 0 5.28 2.65 2.65 0 1 0 0-5.28z"/><path fill="#fff" d="M879.13 58.35A2.5 2.5 0 0 1 876.5 56a2.24 2.24 0 0 1 .67-1.62 2.71 2.71 0 0 1 1.9-.79 2.51 2.51 0 0 1 2.61 2.37 2.26 2.26 0 0 1-.67 1.63 2.7 2.7 0 0 1-1.9.78z"/><path fill="#00f" d="M879.13 53.32v.5A2.26 2.26 0 0 1 881.5 56a2 2 0 0 1-.6 1.44 2.43 2.43 0 0 1-1.74.71 2.25 2.25 0 0 1-2.34-2.12 2 2 0 0 1 .6-1.45 2.51 2.51 0 0 1 1.72-.71v-.5m0 0a2.65 2.65 0 1 0 0 5.28 2.65 2.65 0 1 0 0-5.28z"/><path fill="#fff" d="M892.32 49.46a2.5 2.5 0 0 1-2.59-2.37 2.36 2.36 0 0 1 .67-1.63 2.75 2.75 0 0 1 1.9-.78 2.52 2.52 0 0 1 2.62 2.37 2.33 2.33 0 0 1-.68 1.63 2.68 2.68 0 0 1-1.9.78z"/><path fill="#00f" d="M892.32 44.43v.5a2.26 2.26 0 0 1 2.35 2.12 2 2 0 0 1-.61 1.45 2.41 2.41 0 0 1-1.74.71 2.25 2.25 0 0 1-2.34-2.12 2.06 2.06 0 0 1 .6-1.45 2.43 2.43 0 0 1 1.73-.71v-.5m0 0a2.65 2.65 0 1 0 0 5.28 2.65 2.65 0 1 0 0-5.28z"/><path fill="#fff" d="M871.44 44.32a2.5 2.5 0 0 1-2.59-2.37 2.24 2.24 0 0 1 .67-1.62 2.71 2.71 0 0 1 1.9-.79 2.51 2.51 0 0 1 2.61 2.38 2.25 2.25 0 0 1-.74 1.68 2.65 2.65 0 0 1-1.83.72z"/><path fill="#00f" d="M871.44 39.29v.5a2.26 2.26 0 0 1 2.34 2.13 2 2 0 0 1-.6 1.45 2.47 2.47 0 0 1-1.74.7A2.25 2.25 0 0 1 869.1 42a2 2 0 0 1 .6-1.45 2.51 2.51 0 0 1 1.72-.71v-.5m0 0a2.65 2.65 0 1 0 0 5.28 2.65 2.65 0 1 0 0-5.28z"/><path fill="none" stroke="#000" stroke-linecap="round" stroke-miterlimit="10" d="M964.09 29.92h-10.62m10.62 12.44V29.92"/><path fill="none" stroke="#000" stroke-miterlimit="10" d="M981.46 42.36h-17.37"/><ellipse cx="983.39" cy="42.36" fill="#fff" rx="2.65" ry="2.42"/><path d="M983.39 40.2a2.18 2.18 0 1 1-2.39 2.16 2.29 2.29 0 0 1 2.39-2.16m0-.5a2.67 2.67 0 1 0 2.9 2.66 2.78 2.78 0 0 0-2.9-2.66z"/><path fill="none" stroke="#000" stroke-linecap="round" stroke-miterlimit="10" d="M984.99 14.58h-10.61m10.96 9.18v-8.8"/><path fill="none" stroke="#000" stroke-miterlimit="10" d="M996.71 23.76h-11.37"/><path fill="#fff" d="M998.62 25.92a2.43 2.43 0 1 1 2.64-2.42 2.55 2.55 0 0 1-2.64 2.42z"/><path d="M998.61 21.33a2.18 2.18 0 1 1-2.39 2.17 2.3 2.3 0 0 1 2.39-2.17m0-.5a2.68 2.68 0 1 0 2.9 2.67 2.79 2.79 0 0 0-2.9-2.67z"/><path fill="#00f" d="M958.37 18.86V2.26h10.82a10.74 10.74 0 0 0 1.81.36 10.9 10.9 0 0 0 3.42.56v15.68z"/><path fill="#00f" d="M969.12 2.76a10.47 10.47 0 0 0 1.77.35 11.14 11.14 0 0 0 3 .56v14.69h-15V2.76h10.25m.14-1h-11.41v17.6h17V2.67h-.37a10.47 10.47 0 0 1-3.44-.55 9.62 9.62 0 0 1-1.85-.37zm-50.7 17.1V3.15a1.44 1.44 0 0 0 .45-.17l.45-.11h.29a1.19 1.19 0 0 0 .33 0h.42a1.49 1.49 0 0 0 .3-.09h.11a4.69 4.69 0 0 0 1-.11h.14a1.16 1.16 0 0 0 .47-.11h.14l.4-.05a1.25 1.25 0 0 0 .31-.12h11.25v16.6z"/><path fill="#00f" d="M934.13 2.76v15.6h-15V3.52l.13-.07h.29a1.23 1.23 0 0 0 .27 0 1.84 1.84 0 0 0 .47-.06h.39l.25-.07h.12a4.65 4.65 0 0 0 1-.13h.06a1.75 1.75 0 0 0 .57-.11h.11l.44-.07a1.32 1.32 0 0 0 .3-.1h10.64m1-1h-11.9a.79.79 0 0 1-.26.13h-.56a.72.72 0 0 1-.35.11h-.25a4.39 4.39 0 0 1-.81.11h-.06a1 1 0 0 1-.17 0 2.06 2.06 0 0 1-.35.12l-.45.1h-.2a1 1 0 0 1-.29 0l-.31.07-.33.08a1 1 0 0 1-.53.18.87.87 0 0 1-.22 0v16.72h17V1.76z"/><path fill="none" stroke="#000" stroke-linecap="round" stroke-miterlimit="10" d="M958.82 23.76h-5.69m5.69 12.32V23.76"/><path fill="none" stroke="#000" stroke-miterlimit="10" d="M994.82 36.08h-36"/><path d="M996.26 38.9a2.82 2.82 0 1 1 3-2.82 2.95 2.95 0 0 1-3 2.82z"/><path d="M996.26 33.52a2.57 2.57 0 1 1-2.8 2.56 2.69 2.69 0 0 1 2.8-2.56m0-.5a3.07 3.07 0 1 0 3.29 3.06 3.18 3.18 0 0 0-3.29-3.06z"/><path fill="#00f" d="M938.95 2.26h14.63v30.68h-14.63z"/><path fill="#00f" d="M953.08 2.76v29.68H939.5V2.76h13.63m1-1H938.5v31.68h15.63V1.76z"/><path fill="none" stroke="#000" stroke-miterlimit="10" d="M956.72 218.03h-6.54m6.54 3.85h-6.54m6.54 3.86h-6.54m6.54 3.85h-6.54m6.54 3.86h-6.54m6.54 3.85h-6.54m6.54 3.74h-6.54m6.54 3.97h-6.54m6.54 3.85h-6.54m43.58-30.94h-6.53m6.53 3.85h-6.53m6.53 3.85h-6.53m6.53 3.86h-6.53m6.53 3.85h-6.53m6.53 3.86h-6.53m6.53 3.85h-6.53m6.53 3.86h-6.53m6.53 3.85h-6.53m-1.45-33.45v-5.6m-4.5 5.6v-5.6m-4.49 5.6v-5.6m-4.5 5.6v-5.6m-4.49 5.6v-5.6m-4.5 5.6v-5.6m-4.49 5.6v-5.6m26.97 46.72v-5.61m-4.5 5.61v-5.61m-4.49 5.61v-5.61m-4.5 5.61v-5.61m-4.49 5.61v-5.61m-4.5 5.61v-5.61m-4.49 5.61v-5.61"/><path fill="#1a1a1a" stroke="#1a1a1a" stroke-miterlimit="10" d="M957.81 215.23h28.33v35.51h-28.33z"/><path fill="none" stroke="#00f" stroke-miterlimit="10" d="M947.45 264.9l-.45-59.4m-3.34 59.4v-29.92"/><path fill="none" stroke="#00f" stroke-linecap="round" stroke-miterlimit="10" d="M936.08 264.9v-52.8"/><path fill="none" stroke="#00f" stroke-miterlimit="10" d="M932.29 264.9v-19.36"/><path fill="none" stroke="#00f" stroke-linecap="round" stroke-miterlimit="10" d="M928.5 263.14v-61.6"/><path fill="none" stroke="#00f" stroke-miterlimit="10" d="M924.71 263.14v-17.6"/><path fill="none" stroke="#00f" stroke-linecap="round" stroke-miterlimit="10" d="M920.92 263.14V220.9"/><path fill="none" stroke="#00f" stroke-miterlimit="10" d="M917.13 261.38v-12.32m-3.79 12.32v-12.32"/><path fill="none" stroke="#00f" stroke-linecap="round" stroke-miterlimit="10" d="M909.55 259.62v-33.44"/><path fill="none" stroke="#00f" stroke-miterlimit="10" d="M939.87 264.9v-31.68m-34.11 26.4v-17.6"/><path fill="none" stroke="#00f" stroke-linecap="round" stroke-miterlimit="10" d="M901.97 257.86v-17.6m-3.79 15.84v-14.08m-3.79 14.08v-17.6m-3.78 15.84v-10.56m-3.79 8.8v-8.8m-3.79 7.04v-8.8m-3.79 7.04v-12.32m-3.79 10.56v-8.8m-3.79 7.04v-8.8m-3.79 5.28v-3.52m79.13-33l85.71.28"/><ellipse cx="1036.5" cy="205.78" fill="#fff" rx="4.24" ry="3.9"/><path fill="#00f" d="M1036.5 202.38a3.42 3.42 0 1 1-3.74 3.4 3.58 3.58 0 0 1 3.74-3.4m0-1a4.41 4.41 0 1 0 4.74 4.4 4.58 4.58 0 0 0-4.74-4.4z"/><path fill="none" stroke="#00f" stroke-miterlimit="10" d="M881.13 212.1h54.95m-47.37-10.56h39.79m-34.11 19.36h26.53m-47.37 5.28h36"/><path fill="#fff" d="M886.82 203.93a2.4 2.4 0 1 1 2.59-2.39 2.51 2.51 0 0 1-2.59 2.39z"/><path fill="#00f" d="M886.82 199.4a2.15 2.15 0 1 1-2.35 2.14 2.25 2.25 0 0 1 2.35-2.14m0-.5a2.65 2.65 0 1 0 2.84 2.64 2.75 2.75 0 0 0-2.84-2.64z"/><ellipse cx="879.24" cy="212.1" fill="#fff" rx="2.59" ry="2.39"/><path fill="#00f" d="M879.24 210a2.15 2.15 0 1 1-2.35 2.14 2.25 2.25 0 0 1 2.35-2.14m0-.5a2.65 2.65 0 1 0 2.84 2.64 2.75 2.75 0 0 0-2.84-2.64z"/><ellipse cx="892.5" cy="220.9" fill="#fff" rx="2.59" ry="2.39"/><path fill="#00f" d="M892.5 218.76a2.15 2.15 0 1 1-2.34 2.14 2.25 2.25 0 0 1 2.34-2.14m0-.5a2.65 2.65 0 1 0 2.84 2.64 2.74 2.74 0 0 0-2.84-2.64z"/><path fill="#fff" d="M871.66 228.57a2.4 2.4 0 1 1 2.59-2.39 2.5 2.5 0 0 1-2.59 2.39z"/><path fill="#00f" d="M871.66 224a2.15 2.15 0 1 1-2.34 2.14 2.25 2.25 0 0 1 2.34-2.14m0-.5a2.65 2.65 0 1 0 2.84 2.64 2.74 2.74 0 0 0-2.84-2.64z"/><path fill="#fff" d="M879.24 212.73a.63.63 0 1 1 .69-.63.66.66 0 0 1-.69.63z"/><path fill="#00f" d="M879.24 211.72a.39.39 0 1 1-.45.38.42.42 0 0 1 .45-.38m0-.5a.88.88 0 1 0 .94.88.91.91 0 0 0-.94-.88z"/><path fill="#4d4d4d" d="M850.12 91.78h56.34v78.71h-56.34z"/><path d="M906.21 92v78.21h-55.84V92h55.84m.5-.5h-56.84v79.21h56.84V91.53z"/><path fill="none" stroke="#000" stroke-linecap="round" stroke-miterlimit="10" stroke-width=".75" d="M807.24 108.25h26.52m0 28.16v-28.16m26.53 28.16h-26.53"/><ellipse cx="860.29" cy="136.41" fill="#fff" stroke="#000" stroke-linecap="round" stroke-miterlimit="10" stroke-width=".75" rx="3.79" ry="3.52"/><ellipse cx="860.29" cy="136.41" stroke="#000" stroke-linecap="round" stroke-miterlimit="10" stroke-width=".75" rx="1.89" ry="1.76"/><path fill="#4d4d4d" d="M994.12 88.26h50.66v87.51h-50.66z"/><path d="M1044.5 88.51v87h-50.16v-87h50.16m.5-.5h-51.16v88H1045V88z"/><path fill="none" stroke="#000" stroke-miterlimit="10" stroke-width=".5" d="M1083.87 166.33h-18.95m-26.53-38.72h26.53"/><path fill="none" stroke="#000" stroke-linecap="round" stroke-miterlimit="10" stroke-width=".5" d="M1064.92 166.33v-38.72"/><ellipse cx="1036.5" cy="127.61" fill="#fff" stroke="#000" stroke-linecap="round" stroke-miterlimit="10" stroke-width=".75" rx="3.79" ry="3.52"/><ellipse cx="1036.5" cy="127.61" stroke="#000" stroke-linecap="round" stroke-miterlimit="10" stroke-width=".75" rx="1.89" ry="1.76"/><path stroke="#000" stroke-miterlimit="10" d="M935.08 121.82h24.23v21.52h-24.23z"/><path fill="none" stroke="#00f" stroke-miterlimit="10" d="M937.77 140.95v16.73"/><path fill="none" stroke="#00f" stroke-linecap="round" stroke-miterlimit="10" d="M951.24 157.68h-13.47"/><path fill="none" stroke="#00f" stroke-miterlimit="10" d="M943.16 140.95v23.91"/><path fill="none" stroke="#00f" stroke-linecap="round" stroke-miterlimit="10" d="M921.62 164.86h21.54"/><path fill="none" stroke="#00f" stroke-miterlimit="10" d="M921.62 176.81v-11.95m29.62-7.18v33.48m-2.7-47.82v9.56"/><path fill="none" stroke="#00f" stroke-linecap="round" stroke-miterlimit="10" d="M978.16 179.2v-26.3m-24.23-9.56v4.78m13.46 0h-13.46m13.46 33.48v-33.48m10.77 4.78h-29.62"/><path fill="#fff" d="M921.62 182.54a3.36 3.36 0 1 1 3.79-3.34 3.59 3.59 0 0 1-3.79 3.34z"/><path fill="#00f" d="M921.62 176.12a3.11 3.11 0 1 1-3.54 3.08 3.34 3.34 0 0 1 3.54-3.08m0-.5a3.61 3.61 0 1 0 4 3.58 3.83 3.83 0 0 0-4-3.58z"/><path fill="#fff" d="M967.39 187.32a3.36 3.36 0 1 1 3.79-3.33 3.58 3.58 0 0 1-3.79 3.33z"/><path fill="#00f" d="M967.39 180.9a3.11 3.11 0 1 1-3.54 3.09 3.34 3.34 0 0 1 3.54-3.09m0-.5a3.61 3.61 0 1 0 4 3.59 3.84 3.84 0 0 0-4-3.59z"/><ellipse cx="978.16" cy="181.6" rx="3.79" ry="3.34"/><path fill="#00f" d="M978.16 178.51a3.11 3.11 0 1 1-3.54 3.09 3.34 3.34 0 0 1 3.54-3.09m0-.5a3.61 3.61 0 1 0 4 3.59 3.83 3.83 0 0 0-4-3.59z"/><path d="M951.24 196.89a3.37 3.37 0 1 1 3.79-3.34 3.59 3.59 0 0 1-3.79 3.34z"/><path fill="#00f" d="M951.24 190.46a3.12 3.12 0 1 1-3.54 3.09 3.35 3.35 0 0 1 3.54-3.09m0-.5a3.62 3.62 0 1 0 4 3.59 3.84 3.84 0 0 0-4-3.59z"/><path fill="none" stroke="#00f" stroke-miterlimit="10" d="M933.74 124.21h-30.97"/><path fill="none" stroke="#00f" stroke-linecap="round" stroke-miterlimit="10" d="M902.77 114.64v9.57"/><path fill="none" stroke="#00f" stroke-miterlimit="10" d="M883.92 114.64h18.85m32.31 14.35h-21.54"/><path fill="none" stroke="#00f" stroke-linecap="round" stroke-miterlimit="10" d="M913.54 152.9v-23.91"/><path fill="none" stroke="#00f" stroke-miterlimit="10" d="M892 152.9h21.54m21.54-19.13h-40.39"/><path fill="none" stroke="#00f" stroke-linecap="round" stroke-miterlimit="10" d="M894.69 124.21v9.56"/><path fill="none" stroke="#00f" stroke-miterlimit="10" d="M886.62 124.21h8.07m40.39 14.34h-13.46"/><path fill="none" stroke="#00f" stroke-linecap="round" stroke-miterlimit="10" d="M921.62 143.34v-4.79"/><path fill="none" stroke="#00f" stroke-miterlimit="10" d="M881.23 143.34h40.39"/><path fill="#fff" d="M881.23 118a3.36 3.36 0 1 1 3.79-3.34 3.59 3.59 0 0 1-3.79 3.34z"/><path fill="#00f" d="M881.23 111.56a3.11 3.11 0 1 1-3.54 3.08 3.34 3.34 0 0 1 3.54-3.08m0-.5a3.61 3.61 0 1 0 4 3.58 3.83 3.83 0 0 0-4-3.58z"/><path fill="#fff" d="M878.5 146.67a3.36 3.36 0 1 1 3.79-3.33 3.58 3.58 0 0 1-3.79 3.33z"/><path fill="#00f" d="M878.5 140.25a3.11 3.11 0 1 1-3.54 3.09 3.34 3.34 0 0 1 3.54-3.09m0-.5a3.61 3.61 0 1 0 4 3.59 3.84 3.84 0 0 0-4-3.59z"/><path d="M889.31 156.24a3.37 3.37 0 1 1 3.79-3.34 3.59 3.59 0 0 1-3.79 3.34z"/><path fill="#00f" d="M889.31 149.81a3.12 3.12 0 1 1-3.54 3.09 3.35 3.35 0 0 1 3.54-3.09m0-.5a3.62 3.62 0 1 0 4 3.59 3.84 3.84 0 0 0-4-3.59z"/><path d="M883.92 127.54a3.36 3.36 0 1 1 3.79-3.33 3.57 3.57 0 0 1-3.79 3.33z"/><path fill="#00f" d="M883.92 121.12a3.11 3.11 0 1 1-3.53 3.09 3.34 3.34 0 0 1 3.53-3.09m0-.5a3.61 3.61 0 1 0 4 3.59 3.83 3.83 0 0 0-4-3.59z"/><path fill="none" stroke="#00f" stroke-linecap="round" stroke-miterlimit="10" d="M945.85 109.86v13.15M927 109.86h18.85"/><path fill="none" stroke="#00f" stroke-miterlimit="10" d="M927 88.34v21.52m13.47 11.96V97.9"/><path fill="none" stroke="#00f" stroke-linecap="round" stroke-miterlimit="10" d="M951.24 97.9h-10.77"/><path fill="none" stroke="#00f" stroke-miterlimit="10" d="M951.24 81.17V97.9"/><path fill="#fff" d="M927 89.29a3.37 3.37 0 1 1 3.79-3.34 3.59 3.59 0 0 1-3.79 3.34z"/><path fill="#00f" d="M927 82.86a3.12 3.12 0 1 1-3.5 3.14 3.34 3.34 0 0 1 3.53-3.09m0-.5a3.62 3.62 0 1 0 4 3.59 3.83 3.83 0 0 0-4-3.59z"/><path d="M951.24 82.11a3.36 3.36 0 1 1 3.79-3.33 3.58 3.58 0 0 1-3.79 3.33z"/><path fill="#00f" d="M951.24 75.69a3.11 3.11 0 1 1-3.54 3.09 3.34 3.34 0 0 1 3.54-3.09m0-.5a3.61 3.61 0 1 0 4 3.59 3.83 3.83 0 0 0-4-3.59z"/><path fill="none" stroke="#00f" stroke-linecap="round" stroke-miterlimit="10" d="M951.24 123.01v-15.54"/><path fill="none" stroke="#00f" stroke-miterlimit="10" d="M975.47 81.17v26.3"/><path fill="none" stroke="#00f" stroke-linecap="round" stroke-miterlimit="10" d="M975.47 107.47h-24.23"/><path fill="none" stroke="#00f" stroke-miterlimit="10" d="M964.7 76.38v38.26"/><path fill="none" stroke="#00f" stroke-linecap="round" stroke-miterlimit="10" d="M956.62 114.64h8.08"/><path fill="none" stroke="#00f" stroke-miterlimit="10" d="M956.62 121.82v-7.18m2.69 16.74h24.24"/><path fill="none" stroke="#00f" stroke-linecap="round" stroke-miterlimit="10" d="M983.55 112.25v19.13"/><path fill="none" stroke="#00f" stroke-miterlimit="10" d="M1007.78 112.25h-24.23m-24.24 11.96h48.47"/><path fill="none" stroke="#00f" stroke-linecap="round" stroke-miterlimit="10" d="M1007.78 138.55v-14.34"/><path fill="none" stroke="#00f" stroke-miterlimit="10" d="M1021.24 138.55h-13.46"/><path fill="#fff" d="M1023.93 141.89a3.36 3.36 0 1 1 3.79-3.34 3.59 3.59 0 0 1-3.79 3.34z"/><path fill="#00f" d="M1023.93 135.47a3.11 3.11 0 1 1-3.53 3.08 3.33 3.33 0 0 1 3.53-3.08m0-.5a3.61 3.61 0 1 0 4 3.58 3.82 3.82 0 0 0-4-3.58z"/><ellipse cx="975.47" cy="78.78" fill="#fff" rx="3.79" ry="3.34"/><path fill="#00f" d="M975.5 75.69a3.11 3.11 0 1 1-3.54 3.09 3.34 3.34 0 0 1 3.54-3.09m0-.5a3.61 3.61 0 1 0 4 3.59 3.83 3.83 0 0 0-4-3.59z"/><path d="M1010.5 115.59a3.36 3.36 0 1 1 3.79-3.34 3.59 3.59 0 0 1-3.79 3.34z"/><path fill="#00f" d="M1010.5 109.16a3.12 3.12 0 1 1-3.54 3.09 3.34 3.34 0 0 1 3.54-3.09m0-.5a3.62 3.62 0 1 0 4 3.59 3.84 3.84 0 0 0-4-3.59z"/><path fill="none" stroke="#00f" stroke-linecap="round" stroke-miterlimit="10" d="M986.24 164.86v-23.91"/><path fill="none" stroke="#00f" stroke-miterlimit="10" d="M959.31 140.95h26.93m13.46 23.91h-13.46"/><path fill="#fff" d="M1002.39 168.19a3.36 3.36 0 1 1 3.79-3.33 3.58 3.58 0 0 1-3.79 3.33z"/><path fill="#00f" d="M1002.39 161.77a3.11 3.11 0 1 1-3.53 3.09 3.34 3.34 0 0 1 3.53-3.09m0-.5a3.61 3.61 0 1 0 4 3.59 3.83 3.83 0 0 0-4-3.59z"/><path fill="none" stroke="#00f" stroke-miterlimit="10" d="M959.31 136.16h35.01"/><path fill="none" stroke="#00f" stroke-linecap="round" stroke-miterlimit="10" d="M994.32 155.29v-19.13"/><path fill="none" stroke="#00f" stroke-miterlimit="10" d="M1018.55 155.29h-24.23"/><ellipse cx="1021.24" cy="155.29" rx="3.79" ry="3.34"/><path fill="#00f" d="M1021.24 152.21a3.11 3.11 0 1 1-3.54 3.08 3.34 3.34 0 0 1 3.54-3.08m0-.5a3.61 3.61 0 1 0 4 3.58 3.83 3.83 0 0 0-4-3.58z"/><path d="M964.7 77.33a3.36 3.36 0 1 1 3.8-3.33 3.59 3.59 0 0 1-3.8 3.33z"/><path fill="#00f" d="M964.7 70.91a3.11 3.11 0 1 1-3.54 3.08 3.34 3.34 0 0 1 3.54-3.08m0-.5a3.61 3.61 0 1 0 4 3.58 3.83 3.83 0 0 0-4-3.58z"/><ellipse cx="842.87" cy="91.64" fill="#fff" stroke="#00f" stroke-miterlimit="10" rx="4.71" ry="4.85"/><ellipse cx="842.87" cy="91.64" stroke="#000" stroke-miterlimit="10" rx="2.35" ry="2.43"/><ellipse cx="865.87" cy="64.64" fill="#fff" stroke="#00f" stroke-miterlimit="10" rx="4.71" ry="4.85"/><ellipse cx="865.87" cy="64.64" stroke="#000" stroke-miterlimit="10" rx="2.35" ry="2.43"/><ellipse cx="870.87" cy="51.64" fill="#fff" stroke="#00f" stroke-miterlimit="10" rx="4.71" ry="4.85"/><ellipse cx="870.87" cy="51.64" stroke="#000" stroke-miterlimit="10" rx="2.35" ry="2.43"/><ellipse cx="906.87" cy="183.64" fill="#fff" stroke="#00f" stroke-miterlimit="10" rx="4.71" ry="4.85"/><ellipse cx="906.87" cy="183.64" stroke="#000" stroke-miterlimit="10" rx="2.35" ry="2.43"/><ellipse cx="936.64" cy="193.63" fill="#fff" stroke="#00f" stroke-miterlimit="10" rx="4.71" ry="4.85"/><ellipse cx="936.64" cy="193.63" stroke="#000" stroke-miterlimit="10" rx="2.35" ry="2.43"/><ellipse cx="1016.82" cy="51.34" fill="#fff" stroke="#00f" stroke-miterlimit="10" rx="4.71" ry="4.85"/><ellipse cx="1016.82" cy="51.34" stroke="#000" stroke-miterlimit="10" rx="2.35" ry="2.43"/><ellipse cx="1023.82" cy="65.34" fill="#fff" stroke="#00f" stroke-miterlimit="10" rx="4.71" ry="4.85"/><ellipse cx="1023.82" cy="65.34" stroke="#000" stroke-miterlimit="10" rx="2.35" ry="2.43"/><ellipse cx="999.82" cy="183.34" fill="#fff" stroke="#00f" stroke-miterlimit="10" rx="4.71" ry="4.85"/><ellipse cx="999.82" cy="183.34" stroke="#000" stroke-miterlimit="10" rx="2.35" ry="2.43"/><ellipse cx="975.04" cy="195.36" fill="#fff" stroke="#00f" stroke-miterlimit="10" rx="6.17" ry="6.36"/><ellipse cx="975.04" cy="195.36" stroke="#000" stroke-miterlimit="10" rx="3.08" ry="3.18"/></symbol></svg>