<svg id="Layer_1" data-name="Layer 1" xmlns="http://www.w3.org/2000/svg" viewBox="0 0 1893 267.54"><line x1="871.74" y1="152.34" x2="611.54" y2="152.34" fill="none" stroke="blue" stroke-linecap="round" stroke-miterlimit="10" stroke-width="6"/><line x1="611.54" y1="103.81" x2="611.54" y2="152.34" fill="none" stroke="blue" stroke-linecap="round" stroke-miterlimit="10" stroke-width="6"/><line x1="155.91" y1="103.81" x2="611.54" y2="103.81" fill="none" stroke="blue" stroke-linecap="round" stroke-miterlimit="10" stroke-width="6"/><line x1="859.96" y1="122.01" x2="580.93" y2="122.01" fill="none" stroke="blue" stroke-linecap="round" stroke-miterlimit="10" stroke-width="6"/><line x1="580.93" y1="80.76" x2="580.93" y2="122.01" fill="none" stroke="blue" stroke-linecap="round" stroke-miterlimit="10" stroke-width="6"/><line x1="313.67" y1="80.76" x2="580.93" y2="80.76" fill="none" stroke="blue" stroke-linecap="round" stroke-miterlimit="10" stroke-width="6"/><line x1="904.7" y1="183.89" x2="549.14" y2="182.67" fill="none" stroke="blue" stroke-linecap="round" stroke-miterlimit="10" stroke-width="6"/><line x1="549.14" y1="147.49" x2="549.14" y2="182.67" fill="none" stroke="blue" stroke-linecap="round" stroke-miterlimit="10" stroke-width="6"/><line x1="198.29" y1="147.49" x2="549.14" y2="147.49" fill="none" stroke="blue" stroke-linecap="round" stroke-miterlimit="10" stroke-width="6"/><line x1="857.61" y1="102.6" x2="646.86" y2="102.6" fill="none" stroke="blue" stroke-linecap="round" stroke-miterlimit="10" stroke-width="6"/><line x1="646.86" y1="51.64" x2="646.86" y2="102.6" fill="none" stroke="blue" stroke-linecap="round" stroke-miterlimit="10" stroke-width="6"/><line x1="223.02" y1="51.64" x2="646.86" y2="51.64" fill="none" stroke="blue" stroke-linecap="round" stroke-miterlimit="10" stroke-width="6"/><line x1="935" y1="194.5" x2="401.98" y2="197.23" fill="none" stroke="blue" stroke-linecap="round" stroke-miterlimit="10" stroke-width="6"/><line x1="401.98" y1="131.71" x2="401.98" y2="197.23" fill="none" stroke="blue" stroke-linecap="round" stroke-miterlimit="10" stroke-width="6"/><line x1="9.92" y1="131.71" x2="401.98" y2="131.71" fill="none" stroke="blue" stroke-linecap="round" stroke-miterlimit="10" stroke-width="6"/><line x1="838" y1="91.5" x2="690.43" y2="91.68" fill="none" stroke="blue" stroke-linecap="round" stroke-miterlimit="10" stroke-width="6"/><line x1="690.43" y1="172.96" x2="690.43" y2="91.68" fill="none" stroke="blue" stroke-linecap="round" stroke-miterlimit="10" stroke-width="6"/><line x1="247.74" y1="172.97" x2="690.43" y2="172.96" fill="none" stroke="blue" stroke-linecap="round" stroke-miterlimit="10" stroke-width="6"/><line x1="865.85" y1="64.99" x2="737.52" y2="64.99" fill="none" stroke="blue" stroke-linecap="round" stroke-miterlimit="10" stroke-width="6"/><line x1="737.52" y1="134.14" x2="737.52" y2="64.99" fill="none" stroke="blue" stroke-linecap="round" stroke-miterlimit="10" stroke-width="6"/><line x1="439.65" y1="134.14" x2="737.52" y2="134.14" fill="none" stroke="blue" stroke-linecap="round" stroke-miterlimit="10" stroke-width="6"/><line x1="872.92" y1="51.64" x2="795.21" y2="51.64" fill="none" stroke="blue" stroke-linecap="round" stroke-miterlimit="10" stroke-width="6"/><line x1="795.21" y1="208.15" x2="795.21" y2="51.64" fill="none" stroke="blue" stroke-linecap="round" stroke-miterlimit="10" stroke-width="6"/><line x1="356.06" y1="208.15" x2="795.21" y2="208.15" fill="none" stroke="blue" stroke-linecap="round" stroke-miterlimit="10" stroke-width="6"/><line x1="1021.63" y1="152.26" x2="1281.82" y2="152.26" fill="none" stroke="blue" stroke-linecap="round" stroke-miterlimit="10" stroke-width="6"/><line x1="1281.82" y1="103.73" x2="1281.82" y2="152.26" fill="none" stroke="blue" stroke-linecap="round" stroke-miterlimit="10" stroke-width="6"/><line x1="1737.45" y1="103.73" x2="1281.82" y2="103.73" fill="none" stroke="blue" stroke-linecap="round" stroke-miterlimit="10" stroke-width="6"/><line x1="1033.04" y1="122.01" x2="1312.43" y2="121.93" fill="none" stroke="blue" stroke-linecap="round" stroke-miterlimit="10" stroke-width="6"/><line x1="1312.43" y1="80.68" x2="1312.43" y2="121.93" fill="none" stroke="blue" stroke-linecap="round" stroke-miterlimit="10" stroke-width="6"/><line x1="1579.69" y1="80.68" x2="1312.43" y2="80.68" fill="none" stroke="blue" stroke-linecap="round" stroke-miterlimit="10" stroke-width="6"/><line x1="1000" y1="183.5" x2="1344.22" y2="182.59" fill="none" stroke="blue" stroke-linecap="round" stroke-miterlimit="10" stroke-width="6"/><line x1="1344.22" y1="147.41" x2="1344.22" y2="182.59" fill="none" stroke="blue" stroke-linecap="round" stroke-miterlimit="10" stroke-width="6"/><line x1="1695.07" y1="147.41" x2="1344.22" y2="147.41" fill="none" stroke="blue" stroke-linecap="round" stroke-miterlimit="10" stroke-width="6"/><line x1="1035.75" y1="102.52" x2="1246.5" y2="102.52" fill="none" stroke="blue" stroke-linecap="round" stroke-miterlimit="10" stroke-width="6"/><line x1="1246.5" y1="51.56" x2="1246.5" y2="102.52" fill="none" stroke="blue" stroke-linecap="round" stroke-miterlimit="10" stroke-width="6"/><line x1="1670.35" y1="51.56" x2="1246.5" y2="51.56" fill="none" stroke="blue" stroke-linecap="round" stroke-miterlimit="10" stroke-width="6"/><line x1="980.5" y1="196" x2="1491.4" y2="197.15" fill="none" stroke="blue" stroke-linecap="round" stroke-miterlimit="10" stroke-width="6"/><line x1="1491.39" y1="131.64" x2="1491.39" y2="197.15" fill="none" stroke="blue" stroke-linecap="round" stroke-miterlimit="10" stroke-width="6"/><line x1="1883.45" y1="131.64" x2="1491.39" y2="131.64" fill="none" stroke="blue" stroke-linecap="round" stroke-miterlimit="10" stroke-width="6"/><line x1="1034.58" y1="91.6" x2="1202.94" y2="91.6" fill="none" stroke="blue" stroke-linecap="round" stroke-miterlimit="10" stroke-width="6"/><line x1="1202.94" y1="172.89" x2="1202.94" y2="91.6" fill="none" stroke="blue" stroke-linecap="round" stroke-miterlimit="10" stroke-width="6"/><line x1="1645.62" y1="172.89" x2="1202.94" y2="172.89" fill="none" stroke="blue" stroke-linecap="round" stroke-miterlimit="10" stroke-width="6"/><line x1="1027.51" y1="64.91" x2="1155.84" y2="64.91" fill="none" stroke="blue" stroke-linecap="round" stroke-miterlimit="10" stroke-width="6"/><line x1="1155.84" y1="134.06" x2="1155.84" y2="64.91" fill="none" stroke="blue" stroke-linecap="round" stroke-miterlimit="10" stroke-width="6"/><line x1="1453.71" y1="134.06" x2="1155.84" y2="134.06" fill="none" stroke="blue" stroke-linecap="round" stroke-miterlimit="10" stroke-width="6"/><line x1="1020.45" y1="51.56" x2="1098.15" y2="51.56" fill="none" stroke="blue" stroke-linecap="round" stroke-miterlimit="10" stroke-width="6"/><line x1="1098.15" y1="208.07" x2="1098.15" y2="51.56" fill="none" stroke="blue" stroke-linecap="round" stroke-miterlimit="10" stroke-width="6"/><line x1="1537.31" y1="208.07" x2="1098.15" y2="208.07" fill="none" stroke="blue" stroke-linecap="round" stroke-miterlimit="10" stroke-width="6"/><ellipse cx="218.31" cy="51.64" rx="4.71" ry="4.85" fill="#fff" stroke="blue" stroke-miterlimit="10"/><ellipse cx="218.31" cy="51.64" rx="2.35" ry="2.43" stroke="#000" stroke-miterlimit="10"/><ellipse cx="151.2" cy="103.81" rx="4.71" ry="4.85" fill="#fff" stroke="blue" stroke-miterlimit="10"/><ellipse cx="308.97" cy="80.76" rx="4.71" ry="4.85" fill="#fff" stroke="blue" stroke-miterlimit="10"/><ellipse cx="308.97" cy="80.76" rx="2.35" ry="2.43" stroke="#000" stroke-miterlimit="10"/><ellipse cx="5.21" cy="131.71" rx="4.71" ry="4.85" fill="#fff" stroke="blue" stroke-miterlimit="10"/><ellipse cx="5.21" cy="131.71" rx="2.35" ry="2.43" stroke="#000" stroke-miterlimit="10"/><ellipse cx="193.59" cy="147.49" rx="4.71" ry="4.85" fill="#fff" stroke="blue" stroke-miterlimit="10"/><ellipse cx="193.59" cy="147.49" rx="2.35" ry="2.43" stroke="#000" stroke-miterlimit="10"/><ellipse cx="243.03" cy="172.96" rx="4.71" ry="4.85" fill="#fff" stroke="blue" stroke-miterlimit="10"/><ellipse cx="351.35" cy="208.15" rx="4.71" ry="4.85" fill="#fff" stroke="blue" stroke-miterlimit="10"/><ellipse cx="351.35" cy="208.15" rx="2.35" ry="2.43" stroke="#000" stroke-miterlimit="10"/><ellipse cx="434.94" cy="134.14" rx="4.71" ry="4.85" fill="#fff" stroke="blue" stroke-miterlimit="10"/><ellipse cx="434.94" cy="134.14" rx="2.35" ry="2.43" stroke="#000" stroke-miterlimit="10"/><ellipse cx="1674.69" cy="51.64" rx="4.71" ry="4.85" fill="#fff" stroke="blue" stroke-linecap="round" stroke-miterlimit="10"/><ellipse cx="1674.69" cy="51.64" rx="2.35" ry="2.43" stroke="#000" stroke-linecap="round" stroke-miterlimit="10"/><ellipse cx="1584.03" cy="80.76" rx="4.71" ry="4.85" fill="#fff" stroke="blue" stroke-linecap="round" stroke-miterlimit="10"/><ellipse cx="1459.24" cy="134.14" rx="4.71" ry="4.85" fill="none" stroke="blue" stroke-linecap="round" stroke-miterlimit="10" stroke-width="3"/><ellipse cx="1459.24" cy="134.14" rx="2.35" ry="2.43" stroke="blue" stroke-linecap="round" stroke-miterlimit="10" stroke-width="3"/><ellipse cx="1741.8" cy="103.81" rx="4.71" ry="4.85" fill="#fff" stroke="blue" stroke-linecap="round" stroke-miterlimit="10"/><ellipse cx="1741.8" cy="103.81" rx="2.35" ry="2.43" stroke="#000" stroke-linecap="round" stroke-miterlimit="10"/><ellipse cx="1887.79" cy="131.71" rx="4.71" ry="4.85" fill="#fff" stroke="blue" stroke-miterlimit="10"/><ellipse cx="1887.79" cy="131.71" rx="2.35" ry="2.43" stroke="#000" stroke-miterlimit="10"/><ellipse cx="1699.41" cy="147.49" rx="4.71" ry="4.85" fill="#fff" stroke="blue" stroke-linecap="round" stroke-miterlimit="10"/><ellipse cx="1699.41" cy="147.49" rx="2.35" ry="2.43" stroke="#000" stroke-linecap="round" stroke-miterlimit="10"/><ellipse cx="1649.97" cy="172.96" rx="4.71" ry="4.85" fill="#fff" stroke="blue" stroke-linecap="round" stroke-miterlimit="10"/><ellipse cx="1649.97" cy="172.96" rx="2.35" ry="2.43"/><ellipse cx="1542.83" cy="208.15" rx="4.71" ry="4.85" fill="#fff" stroke="blue" stroke-linecap="round" stroke-miterlimit="10"/><polyline points="946.5 103.2 946.5 103.2 946.5 103.2 946.5 103.2" fill="none" stroke="#000" stroke-linecap="round" stroke-miterlimit="10"/><line x1="946.49" y1="57.74" x2="1000.06" y2="57.33" fill="none" stroke="blue" stroke-miterlimit="10"/><path d="M1016.92,153.85a2.54,2.54,0,1,1,2.44-2.55,2.5,2.5,0,0,1-2.44,2.55Z" transform="translate(-14.5 -94)" fill="#fff"/><path d="M1016.92,148.28v1a2,2,0,1,1-1.95,2.05,2,2,0,0,1,1.95-2.05l0-1m0,0h0a3,3,0,0,0,0,6.07h0a3,3,0,0,0,0-6.07Z" transform="translate(-14.5 -94)" fill="blue"/><path d="M919.14,143.93a.36.36,0,0,1,0-.71.35.35,0,0,1,.34.35.35.35,0,0,1-.34.36Z" transform="translate(-14.5 -94)" fill="#fff"/><path d="M919.14,143h0a.61.61,0,0,0,0,1.21h0a.61.61,0,0,0,0-1.21Z" transform="translate(-14.5 -94)" fill="blue"/><path d="M961,97c37.7,0,73.14,13.63,99.78,38.38s41.22,57.5,41.22,92.39-14.64,67.7-41.22,92.4S998.7,358.54,961,358.54s-73.14-13.63-99.78-38.37S820,262.66,820,227.77s14.64-67.7,41.22-92.39S923.3,97,961,97m0-3c-79.53,0-144,59.89-144,133.77s64.47,133.77,144,133.77,144-59.89,144-133.77S1040.53,94,961,94Z" transform="translate(-14.5 -94)" fill="blue"/><line x1="946.92" y1="2.69" x2="947.44" y2="67.81" fill="none" stroke="blue" stroke-miterlimit="10"/><line x1="935.55" y1="2.77" x2="935.97" y2="55.57" fill="none" stroke="blue" stroke-linecap="round" stroke-miterlimit="10"/><line x1="927.98" y1="4.58" x2="928.48" y2="66.18" fill="none" stroke="blue" stroke-linecap="round" stroke-miterlimit="10"/><line x1="920.41" y1="4.63" x2="920.74" y2="46.87" fill="none" stroke="blue" stroke-linecap="round" stroke-miterlimit="10"/><line x1="916.63" y1="6.42" x2="916.73" y2="18.74" fill="none" stroke="blue" stroke-miterlimit="10"/><line x1="912.84" y1="6.44" x2="912.94" y2="18.76" fill="none" stroke="blue" stroke-miterlimit="10"/><line x1="909.07" y1="8.23" x2="909.33" y2="41.67" fill="none" stroke="blue" stroke-linecap="round" stroke-miterlimit="10"/><line x1="905.28" y1="8.26" x2="905.42" y2="25.86" fill="none" stroke="blue" stroke-miterlimit="10"/><line x1="901.5" y1="10.04" x2="901.64" y2="27.64" fill="none" stroke="blue" stroke-linecap="round" stroke-miterlimit="10"/><line x1="897.73" y1="11.83" x2="897.84" y2="25.91" fill="none" stroke="blue" stroke-linecap="round" stroke-miterlimit="10"/><line x1="893.94" y1="11.86" x2="894.08" y2="29.46" fill="none" stroke="blue" stroke-linecap="round" stroke-miterlimit="10"/><line x1="890.16" y1="13.64" x2="890.25" y2="24.2" fill="none" stroke="blue" stroke-linecap="round" stroke-miterlimit="10"/><line x1="886.39" y1="15.43" x2="886.46" y2="24.23" fill="none" stroke="blue" stroke-linecap="round" stroke-miterlimit="10"/><line x1="882.61" y1="17.21" x2="882.68" y2="26.01" fill="none" stroke="blue" stroke-linecap="round" stroke-miterlimit="10"/><line x1="878.83" y1="19" x2="878.93" y2="31.32" fill="none" stroke="blue" stroke-linecap="round" stroke-miterlimit="10"/><line x1="875.06" y1="20.79" x2="875.13" y2="29.59" fill="none" stroke="blue" stroke-linecap="round" stroke-miterlimit="10"/><line x1="871.28" y1="22.57" x2="871.35" y2="31.37" fill="none" stroke="blue" stroke-linecap="round" stroke-miterlimit="10"/><line x1="867.52" y1="26.12" x2="867.55" y2="29.64" fill="none" stroke="blue" stroke-linecap="round" stroke-miterlimit="10"/><line x1="881.03" y1="55.95" x2="935.97" y2="55.57" fill="none" stroke="blue" stroke-miterlimit="10"/><line x1="888.69" y1="66.46" x2="928.48" y2="66.18" fill="none" stroke="blue" stroke-miterlimit="10"/><line x1="894.22" y1="47.06" x2="920.74" y2="46.87" fill="none" stroke="blue" stroke-miterlimit="10"/><line x1="873.33" y1="41.92" x2="909.33" y2="41.67" fill="none" stroke="blue" stroke-miterlimit="10"/><path d="M901.29,162.86a2.51,2.51,0,0,1-2.59-2.37,2.33,2.33,0,0,1,.68-1.63,2.7,2.7,0,0,1,1.89-.78,2.52,2.52,0,0,1,2.62,2.37,2.31,2.31,0,0,1-.68,1.63,2.67,2.67,0,0,1-1.9.78Z" transform="translate(-14.5 -94)" fill="#fff"/><path d="M901.29,157.83v.5a2.26,2.26,0,0,1,2.35,2.13,2.06,2.06,0,0,1-.6,1.44,2.44,2.44,0,0,1-1.75.71,2.25,2.25,0,0,1-2.34-2.12,2.06,2.06,0,0,1,.6-1.45,2.47,2.47,0,0,1,1.73-.71v-.5m0,0h0a2.65,2.65,0,1,0,0,5.28h0a2.65,2.65,0,1,0,0-5.28Z" transform="translate(-14.5 -94)" fill="blue"/><path d="M893.63,152.35A2.5,2.5,0,0,1,891,150a2.24,2.24,0,0,1,.67-1.62,2.71,2.71,0,0,1,1.9-.79,2.51,2.51,0,0,1,2.61,2.37,2.26,2.26,0,0,1-.67,1.63,2.7,2.7,0,0,1-1.9.78Z" transform="translate(-14.5 -94)" fill="#fff"/><path d="M893.63,147.32v.5A2.26,2.26,0,0,1,896,150a2,2,0,0,1-.6,1.44,2.43,2.43,0,0,1-1.74.71,2.25,2.25,0,0,1-2.34-2.12,2,2,0,0,1,.6-1.45,2.51,2.51,0,0,1,1.72-.71l0-.5m0,0h0a2.65,2.65,0,1,0,0,5.28h0a2.65,2.65,0,1,0,0-5.28Z" transform="translate(-14.5 -94)" fill="blue"/><path d="M906.82,143.46a2.5,2.5,0,0,1-2.59-2.37,2.36,2.36,0,0,1,.67-1.63,2.75,2.75,0,0,1,1.9-.78,2.52,2.52,0,0,1,2.62,2.37,2.33,2.33,0,0,1-.68,1.63,2.68,2.68,0,0,1-1.9.78Z" transform="translate(-14.5 -94)" fill="#fff"/><path d="M906.82,138.43v.5a2.26,2.26,0,0,1,2.35,2.12,2,2,0,0,1-.61,1.45,2.41,2.41,0,0,1-1.74.71,2.25,2.25,0,0,1-2.34-2.12,2.06,2.06,0,0,1,.6-1.45,2.43,2.43,0,0,1,1.73-.71v-.5m0,0h0a2.65,2.65,0,1,0,0,5.28h0a2.65,2.65,0,1,0,0-5.28Z" transform="translate(-14.5 -94)" fill="blue"/><path d="M885.94,138.32a2.5,2.5,0,0,1-2.59-2.37,2.24,2.24,0,0,1,.67-1.62,2.71,2.71,0,0,1,1.9-.79,2.51,2.51,0,0,1,2.61,2.38,2.25,2.25,0,0,1-.74,1.68,2.65,2.65,0,0,1-1.83.72Z" transform="translate(-14.5 -94)" fill="#fff"/><path d="M885.94,133.29v.5a2.26,2.26,0,0,1,2.34,2.13,2,2,0,0,1-.6,1.45,2.47,2.47,0,0,1-1.74.7A2.25,2.25,0,0,1,883.6,136a2,2,0,0,1,.6-1.45,2.51,2.51,0,0,1,1.72-.71l0-.5m0,0h0a2.65,2.65,0,1,0,0,5.28h0a2.65,2.65,0,1,0,0-5.28Z" transform="translate(-14.5 -94)" fill="blue"/><line x1="964.09" y1="29.92" x2="953.47" y2="29.92" fill="none" stroke="#000" stroke-linecap="round" stroke-miterlimit="10"/><line x1="964.09" y1="42.36" x2="964.09" y2="29.92" fill="none" stroke="#000" stroke-linecap="round" stroke-miterlimit="10"/><line x1="981.46" y1="42.36" x2="964.09" y2="42.36" fill="none" stroke="#000" stroke-miterlimit="10"/><ellipse cx="983.39" cy="42.36" rx="2.65" ry="2.42" fill="#fff"/><path d="M997.89,134.2a2.18,2.18,0,1,1-2.39,2.16,2.29,2.29,0,0,1,2.39-2.16m0-.5a2.67,2.67,0,1,0,2.9,2.66,2.78,2.78,0,0,0-2.9-2.66Z" transform="translate(-14.5 -94)"/><line x1="984.99" y1="14.58" x2="974.38" y2="14.58" fill="none" stroke="#000" stroke-linecap="round" stroke-miterlimit="10"/><line x1="985.34" y1="23.76" x2="985.34" y2="14.96" fill="none" stroke="#000" stroke-linecap="round" stroke-miterlimit="10"/><line x1="996.71" y1="23.76" x2="985.34" y2="23.76" fill="none" stroke="#000" stroke-miterlimit="10"/><path d="M1013.12,119.92a2.43,2.43,0,1,1,2.64-2.42A2.55,2.55,0,0,1,1013.12,119.92Z" transform="translate(-14.5 -94)" fill="#fff"/><path d="M1013.11,115.33a2.18,2.18,0,1,1-2.39,2.17,2.3,2.3,0,0,1,2.39-2.17m0-.5a2.68,2.68,0,1,0,2.9,2.67,2.79,2.79,0,0,0-2.9-2.67Z" transform="translate(-14.5 -94)"/><path d="M972.87,112.86V96.26h10.82a10.74,10.74,0,0,0,1.81.36,10.9,10.9,0,0,0,3.42.56v15.68Z" transform="translate(-14.5 -94)" fill="blue"/><path d="M983.62,96.76a10.47,10.47,0,0,0,1.77.35,11.14,11.14,0,0,0,3,.56v14.69h-15V96.76h10.25m.14-1H972.37v17.6h17V96.67h-.37a10.47,10.47,0,0,1-3.44-.55,9.62,9.62,0,0,1-1.85-.37Z" transform="translate(-14.5 -94)" fill="blue"/><path d="M933.08,112.86V97.15a1.44,1.44,0,0,0,.45-.17l.45-.11.29,0a1.19,1.19,0,0,0,.33,0l.25,0,.17,0a1.49,1.49,0,0,0,.3-.09h.11a4.69,4.69,0,0,0,1-.11l.14,0h0a1.16,1.16,0,0,0,.47-.11h.14l.4-.05a1.25,1.25,0,0,0,.31-.12h11.25v16.6Z" transform="translate(-14.5 -94)" fill="blue"/><path d="M948.63,96.76v15.6h-15V97.52l.13-.07.07,0,.12,0,.1,0a1.23,1.23,0,0,0,.27,0,1.84,1.84,0,0,0,.47-.06l.2,0,.19,0,.25-.07h.12a4.65,4.65,0,0,0,1-.13h.06a1.75,1.75,0,0,0,.57-.11h.11l.44-.07a1.32,1.32,0,0,0,.3-.1h10.64m1-1h-11.9a.79.79,0,0,1-.26.13l-.36,0h-.2a.72.72,0,0,1-.35.11h-.06l-.19,0a4.39,4.39,0,0,1-.81.11h-.06a1,1,0,0,1-.17,0,2.06,2.06,0,0,1-.35.12l-.45.1-.2,0a1,1,0,0,1-.29,0l-.31.07-.33.08a1,1,0,0,1-.53.18h0a.87.87,0,0,1-.22,0v16.72h17V95.76Z" transform="translate(-14.5 -94)" fill="blue"/><line x1="958.82" y1="23.76" x2="953.13" y2="23.76" fill="none" stroke="#000" stroke-linecap="round" stroke-miterlimit="10"/><line x1="958.82" y1="36.08" x2="958.82" y2="23.76" fill="none" stroke="#000" stroke-linecap="round" stroke-miterlimit="10"/><line x1="994.82" y1="36.08" x2="958.82" y2="36.08" fill="none" stroke="#000" stroke-miterlimit="10"/><path d="M1010.76,132.9a2.82,2.82,0,1,1,3-2.82A2.95,2.95,0,0,1,1010.76,132.9Z" transform="translate(-14.5 -94)"/><path d="M1010.76,127.52a2.57,2.57,0,1,1-2.8,2.56,2.69,2.69,0,0,1,2.8-2.56m0-.5a3.07,3.07,0,1,0,3.29,3.06,3.18,3.18,0,0,0-3.29-3.06Z" transform="translate(-14.5 -94)"/><rect x="938.95" y="2.26" width="14.63" height="30.68" fill="blue"/><path d="M967.58,96.76v29.68H954V96.76h13.63m1-1H953v31.68h15.63V95.76Z" transform="translate(-14.5 -94)" fill="blue"/><line x1="956.72" y1="218.03" x2="950.18" y2="218.03" fill="none" stroke="#000" stroke-miterlimit="10"/><line x1="956.72" y1="221.88" x2="950.18" y2="221.88" fill="none" stroke="#000" stroke-miterlimit="10"/><line x1="956.72" y1="225.74" x2="950.18" y2="225.74" fill="none" stroke="#000" stroke-miterlimit="10"/><line x1="956.72" y1="229.59" x2="950.18" y2="229.59" fill="none" stroke="#000" stroke-miterlimit="10"/><line x1="956.72" y1="233.45" x2="950.18" y2="233.45" fill="none" stroke="#000" stroke-miterlimit="10"/><line x1="956.72" y1="237.3" x2="950.18" y2="237.3" fill="none" stroke="#000" stroke-miterlimit="10"/><line x1="956.72" y1="241.04" x2="950.18" y2="241.04" fill="none" stroke="#000" stroke-miterlimit="10"/><line x1="956.72" y1="245.01" x2="950.18" y2="245.01" fill="none" stroke="#000" stroke-miterlimit="10"/><line x1="956.72" y1="248.86" x2="950.18" y2="248.86" fill="none" stroke="#000" stroke-miterlimit="10"/><line x1="993.76" y1="217.92" x2="987.23" y2="217.92" fill="none" stroke="#000" stroke-miterlimit="10"/><line x1="993.76" y1="221.77" x2="987.23" y2="221.77" fill="none" stroke="#000" stroke-miterlimit="10"/><line x1="993.76" y1="225.62" x2="987.23" y2="225.62" fill="none" stroke="#000" stroke-miterlimit="10"/><line x1="993.76" y1="229.48" x2="987.23" y2="229.48" fill="none" stroke="#000" stroke-miterlimit="10"/><line x1="993.76" y1="233.33" x2="987.23" y2="233.33" fill="none" stroke="#000" stroke-miterlimit="10"/><line x1="993.76" y1="237.19" x2="987.23" y2="237.19" fill="none" stroke="#000" stroke-miterlimit="10"/><line x1="993.76" y1="241.04" x2="987.23" y2="241.04" fill="none" stroke="#000" stroke-miterlimit="10"/><line x1="993.76" y1="244.9" x2="987.23" y2="244.9" fill="none" stroke="#000" stroke-miterlimit="10"/><line x1="993.76" y1="248.75" x2="987.23" y2="248.75" fill="none" stroke="#000" stroke-miterlimit="10"/><line x1="985.78" y1="215.3" x2="985.78" y2="209.7" fill="none" stroke="#000" stroke-miterlimit="10"/><line x1="981.28" y1="215.3" x2="981.28" y2="209.7" fill="none" stroke="#000" stroke-miterlimit="10"/><line x1="976.79" y1="215.3" x2="976.79" y2="209.7" fill="none" stroke="#000" stroke-miterlimit="10"/><line x1="972.29" y1="215.3" x2="972.29" y2="209.7" fill="none" stroke="#000" stroke-miterlimit="10"/><line x1="967.8" y1="215.3" x2="967.8" y2="209.7" fill="none" stroke="#000" stroke-miterlimit="10"/><line x1="963.3" y1="215.3" x2="963.3" y2="209.7" fill="none" stroke="#000" stroke-miterlimit="10"/><line x1="958.81" y1="215.3" x2="958.81" y2="209.7" fill="none" stroke="#000" stroke-miterlimit="10"/><line x1="985.78" y1="256.42" x2="985.78" y2="250.81" fill="none" stroke="#000" stroke-miterlimit="10"/><line x1="981.28" y1="256.42" x2="981.28" y2="250.81" fill="none" stroke="#000" stroke-miterlimit="10"/><line x1="976.79" y1="256.42" x2="976.79" y2="250.81" fill="none" stroke="#000" stroke-miterlimit="10"/><line x1="972.29" y1="256.42" x2="972.29" y2="250.81" fill="none" stroke="#000" stroke-miterlimit="10"/><line x1="967.8" y1="256.42" x2="967.8" y2="250.81" fill="none" stroke="#000" stroke-miterlimit="10"/><line x1="963.3" y1="256.42" x2="963.3" y2="250.81" fill="none" stroke="#000" stroke-miterlimit="10"/><line x1="958.81" y1="256.42" x2="958.81" y2="250.81" fill="none" stroke="#000" stroke-miterlimit="10"/><rect x="957.81" y="215.23" width="28.33" height="35.51" fill="#1a1a1a" stroke="#1a1a1a" stroke-miterlimit="10"/><line x1="947.45" y1="264.9" x2="947" y2="205.5" fill="none" stroke="blue" stroke-miterlimit="10"/><line x1="943.66" y1="264.9" x2="943.66" y2="234.98" fill="none" stroke="blue" stroke-miterlimit="10"/><line x1="936.08" y1="264.9" x2="936.08" y2="212.1" fill="none" stroke="blue" stroke-linecap="round" stroke-miterlimit="10"/><line x1="932.29" y1="264.9" x2="932.29" y2="245.54" fill="none" stroke="blue" stroke-miterlimit="10"/><line x1="928.5" y1="263.14" x2="928.5" y2="201.54" fill="none" stroke="blue" stroke-linecap="round" stroke-miterlimit="10"/><line x1="924.71" y1="263.14" x2="924.71" y2="245.54" fill="none" stroke="blue" stroke-miterlimit="10"/><line x1="920.92" y1="263.14" x2="920.92" y2="220.9" fill="none" stroke="blue" stroke-linecap="round" stroke-miterlimit="10"/><line x1="917.13" y1="261.38" x2="917.13" y2="249.06" fill="none" stroke="blue" stroke-miterlimit="10"/><line x1="913.34" y1="261.38" x2="913.34" y2="249.06" fill="none" stroke="blue" stroke-miterlimit="10"/><line x1="909.55" y1="259.62" x2="909.55" y2="226.18" fill="none" stroke="blue" stroke-linecap="round" stroke-miterlimit="10"/><line x1="939.87" y1="264.9" x2="939.87" y2="233.22" fill="none" stroke="blue" stroke-miterlimit="10"/><line x1="905.76" y1="259.62" x2="905.76" y2="242.02" fill="none" stroke="blue" stroke-miterlimit="10"/><line x1="901.97" y1="257.86" x2="901.97" y2="240.26" fill="none" stroke="blue" stroke-linecap="round" stroke-miterlimit="10"/><line x1="898.18" y1="256.1" x2="898.18" y2="242.02" fill="none" stroke="blue" stroke-linecap="round" stroke-miterlimit="10"/><line x1="894.39" y1="256.1" x2="894.39" y2="238.5" fill="none" stroke="blue" stroke-linecap="round" stroke-miterlimit="10"/><line x1="890.61" y1="254.34" x2="890.61" y2="243.78" fill="none" stroke="blue" stroke-linecap="round" stroke-miterlimit="10"/><line x1="886.82" y1="252.58" x2="886.82" y2="243.78" fill="none" stroke="blue" stroke-linecap="round" stroke-miterlimit="10"/><line x1="883.03" y1="250.82" x2="883.03" y2="242.02" fill="none" stroke="blue" stroke-linecap="round" stroke-miterlimit="10"/><line x1="879.24" y1="249.06" x2="879.24" y2="236.74" fill="none" stroke="blue" stroke-linecap="round" stroke-miterlimit="10"/><line x1="875.45" y1="247.3" x2="875.45" y2="238.5" fill="none" stroke="blue" stroke-linecap="round" stroke-miterlimit="10"/><line x1="871.66" y1="245.54" x2="871.66" y2="236.74" fill="none" stroke="blue" stroke-linecap="round" stroke-miterlimit="10"/><line x1="867.87" y1="242.02" x2="867.87" y2="238.5" fill="none" stroke="blue" stroke-linecap="round" stroke-miterlimit="10"/><line x1="947" y1="205.5" x2="1032.71" y2="205.78" fill="none" stroke="blue" stroke-linecap="round" stroke-miterlimit="10"/><ellipse cx="1036.5" cy="205.78" rx="4.24" ry="3.9" fill="#fff"/><path d="M1051,296.38a3.42,3.42,0,1,1-3.74,3.4,3.58,3.58,0,0,1,3.74-3.4m0-1a4.41,4.41,0,1,0,4.74,4.4,4.58,4.58,0,0,0-4.74-4.4Z" transform="translate(-14.5 -94)" fill="blue"/><line x1="881.13" y1="212.1" x2="936.08" y2="212.1" fill="none" stroke="blue" stroke-miterlimit="10"/><line x1="888.71" y1="201.54" x2="928.5" y2="201.54" fill="none" stroke="blue" stroke-miterlimit="10"/><line x1="894.39" y1="220.9" x2="920.92" y2="220.9" fill="none" stroke="blue" stroke-miterlimit="10"/><line x1="873.55" y1="226.18" x2="909.55" y2="226.18" fill="none" stroke="blue" stroke-miterlimit="10"/><path d="M901.32,297.93a2.4,2.4,0,1,1,2.59-2.39A2.51,2.51,0,0,1,901.32,297.93Z" transform="translate(-14.5 -94)" fill="#fff"/><path d="M901.32,293.4a2.15,2.15,0,1,1-2.35,2.14,2.25,2.25,0,0,1,2.35-2.14m0-.5a2.65,2.65,0,1,0,2.84,2.64,2.75,2.75,0,0,0-2.84-2.64Z" transform="translate(-14.5 -94)" fill="blue"/><ellipse cx="879.24" cy="212.1" rx="2.59" ry="2.39" fill="#fff"/><path d="M893.74,304a2.15,2.15,0,1,1-2.35,2.14,2.25,2.25,0,0,1,2.35-2.14m0-.5a2.65,2.65,0,1,0,2.84,2.64,2.75,2.75,0,0,0-2.84-2.64Z" transform="translate(-14.5 -94)" fill="blue"/><ellipse cx="892.5" cy="220.9" rx="2.59" ry="2.39" fill="#fff"/><path d="M907,312.76a2.15,2.15,0,1,1-2.34,2.14,2.25,2.25,0,0,1,2.34-2.14m0-.5a2.65,2.65,0,1,0,2.84,2.64,2.74,2.74,0,0,0-2.84-2.64Z" transform="translate(-14.5 -94)" fill="blue"/><path d="M886.16,322.57a2.4,2.4,0,1,1,2.59-2.39A2.5,2.5,0,0,1,886.16,322.57Z" transform="translate(-14.5 -94)" fill="#fff"/><path d="M886.16,318a2.15,2.15,0,1,1-2.34,2.14,2.25,2.25,0,0,1,2.34-2.14m0-.5a2.65,2.65,0,1,0,2.84,2.64,2.74,2.74,0,0,0-2.84-2.64Z" transform="translate(-14.5 -94)" fill="blue"/><path d="M893.74,306.73a.63.63,0,1,1,.69-.63A.66.66,0,0,1,893.74,306.73Z" transform="translate(-14.5 -94)" fill="#fff"/><path d="M893.74,305.72a.39.39,0,1,1-.45.38.42.42,0,0,1,.45-.38m0-.5a.88.88,0,1,0,.94.88.91.91,0,0,0-.94-.88Z" transform="translate(-14.5 -94)" fill="blue"/><rect x="850.12" y="91.78" width="56.34" height="78.71" fill="#4d4d4d"/><path d="M920.71,186v78.21H864.87V186h55.84m.5-.5H864.37v79.21h56.84V185.53Z" transform="translate(-14.5 -94)"/><line x1="807.24" y1="108.25" x2="833.76" y2="108.25" fill="none" stroke="#000" stroke-linecap="round" stroke-miterlimit="10" stroke-width="0.75"/><line x1="833.76" y1="136.41" x2="833.76" y2="108.25" fill="none" stroke="#000" stroke-linecap="round" stroke-miterlimit="10" stroke-width="0.75"/><line x1="860.29" y1="136.41" x2="833.76" y2="136.41" fill="none" stroke="#000" stroke-linecap="round" stroke-miterlimit="10" stroke-width="0.75"/><ellipse cx="860.29" cy="136.41" rx="3.79" ry="3.52" fill="#fff" stroke="#000" stroke-linecap="round" stroke-miterlimit="10" stroke-width="0.75"/><ellipse cx="860.29" cy="136.41" rx="1.89" ry="1.76" stroke="#000" stroke-linecap="round" stroke-miterlimit="10" stroke-width="0.75"/><rect x="994.12" y="88.26" width="50.66" height="87.51" fill="#4d4d4d"/><path d="M1059,182.51v87h-50.16v-87H1059m.5-.5h-51.16v88h51.16V182Z" transform="translate(-14.5 -94)"/><line x1="1083.87" y1="166.33" x2="1064.92" y2="166.33" fill="none" stroke="#000" stroke-miterlimit="10" stroke-width="0.5"/><line x1="1038.39" y1="127.61" x2="1064.92" y2="127.61" fill="none" stroke="#000" stroke-miterlimit="10" stroke-width="0.5"/><line x1="1064.92" y1="166.33" x2="1064.92" y2="127.61" fill="none" stroke="#000" stroke-linecap="round" stroke-miterlimit="10" stroke-width="0.5"/><ellipse cx="1036.5" cy="127.61" rx="3.79" ry="3.52" fill="#fff" stroke="#000" stroke-linecap="round" stroke-miterlimit="10" stroke-width="0.75"/><ellipse cx="1036.5" cy="127.61" rx="1.89" ry="1.76" stroke="#000" stroke-linecap="round" stroke-miterlimit="10" stroke-width="0.75"/><rect x="935.08" y="121.82" width="24.23" height="21.52" stroke="#000" stroke-miterlimit="10"/><line x1="937.77" y1="140.95" x2="937.77" y2="157.68" fill="none" stroke="blue" stroke-miterlimit="10"/><line x1="951.24" y1="157.68" x2="937.77" y2="157.68" fill="none" stroke="blue" stroke-linecap="round" stroke-miterlimit="10"/><line x1="943.16" y1="140.95" x2="943.16" y2="164.86" fill="none" stroke="blue" stroke-miterlimit="10"/><line x1="921.62" y1="164.86" x2="943.16" y2="164.86" fill="none" stroke="blue" stroke-linecap="round" stroke-miterlimit="10"/><line x1="921.62" y1="176.81" x2="921.62" y2="164.86" fill="none" stroke="blue" stroke-miterlimit="10"/><line x1="951.24" y1="157.68" x2="951.24" y2="191.16" fill="none" stroke="blue" stroke-miterlimit="10"/><line x1="948.54" y1="143.34" x2="948.54" y2="152.9" fill="none" stroke="blue" stroke-miterlimit="10"/><line x1="978.16" y1="179.2" x2="978.16" y2="152.9" fill="none" stroke="blue" stroke-linecap="round" stroke-miterlimit="10"/><line x1="953.93" y1="143.34" x2="953.93" y2="148.12" fill="none" stroke="blue" stroke-linecap="round" stroke-miterlimit="10"/><line x1="967.39" y1="148.12" x2="953.93" y2="148.12" fill="none" stroke="blue" stroke-linecap="round" stroke-miterlimit="10"/><line x1="967.39" y1="181.6" x2="967.39" y2="148.12" fill="none" stroke="blue" stroke-linecap="round" stroke-miterlimit="10"/><line x1="978.16" y1="152.9" x2="948.54" y2="152.9" fill="none" stroke="blue" stroke-linecap="round" stroke-miterlimit="10"/><path d="M936.12,276.54a3.36,3.36,0,1,1,3.79-3.34A3.59,3.59,0,0,1,936.12,276.54Z" transform="translate(-14.5 -94)" fill="#fff"/><path d="M936.12,270.12a3.11,3.11,0,1,1-3.54,3.08,3.34,3.34,0,0,1,3.54-3.08m0-.5a3.61,3.61,0,1,0,4,3.58,3.83,3.83,0,0,0-4-3.58Z" transform="translate(-14.5 -94)" fill="blue"/><path d="M981.89,281.32a3.36,3.36,0,1,1,3.79-3.33A3.58,3.58,0,0,1,981.89,281.32Z" transform="translate(-14.5 -94)" fill="#fff"/><path d="M981.89,274.9a3.11,3.11,0,1,1-3.54,3.09,3.34,3.34,0,0,1,3.54-3.09m0-.5a3.61,3.61,0,1,0,4,3.59,3.84,3.84,0,0,0-4-3.59Z" transform="translate(-14.5 -94)" fill="blue"/><ellipse cx="978.16" cy="181.6" rx="3.79" ry="3.34"/><path d="M992.66,272.51a3.11,3.11,0,1,1-3.54,3.09,3.34,3.34,0,0,1,3.54-3.09m0-.5a3.61,3.61,0,1,0,4,3.59,3.83,3.83,0,0,0-4-3.59Z" transform="translate(-14.5 -94)" fill="blue"/><path d="M965.74,290.89a3.37,3.37,0,1,1,3.79-3.34A3.59,3.59,0,0,1,965.74,290.89Z" transform="translate(-14.5 -94)"/><path d="M965.74,284.46a3.12,3.12,0,1,1-3.54,3.09,3.35,3.35,0,0,1,3.54-3.09m0-.5a3.62,3.62,0,1,0,4,3.59,3.84,3.84,0,0,0-4-3.59Z" transform="translate(-14.5 -94)" fill="blue"/><line x1="933.74" y1="124.21" x2="902.77" y2="124.21" fill="none" stroke="blue" stroke-miterlimit="10"/><line x1="902.77" y1="114.64" x2="902.77" y2="124.21" fill="none" stroke="blue" stroke-linecap="round" stroke-miterlimit="10"/><line x1="883.92" y1="114.64" x2="902.77" y2="114.64" fill="none" stroke="blue" stroke-miterlimit="10"/><line x1="935.08" y1="128.99" x2="913.54" y2="128.99" fill="none" stroke="blue" stroke-miterlimit="10"/><line x1="913.54" y1="152.9" x2="913.54" y2="128.99" fill="none" stroke="blue" stroke-linecap="round" stroke-miterlimit="10"/><line x1="892" y1="152.9" x2="913.54" y2="152.9" fill="none" stroke="blue" stroke-miterlimit="10"/><line x1="935.08" y1="133.77" x2="894.69" y2="133.77" fill="none" stroke="blue" stroke-miterlimit="10"/><line x1="894.69" y1="124.21" x2="894.69" y2="133.77" fill="none" stroke="blue" stroke-linecap="round" stroke-miterlimit="10"/><line x1="886.62" y1="124.21" x2="894.69" y2="124.21" fill="none" stroke="blue" stroke-miterlimit="10"/><line x1="935.08" y1="138.55" x2="921.62" y2="138.55" fill="none" stroke="blue" stroke-miterlimit="10"/><line x1="921.62" y1="143.34" x2="921.62" y2="138.55" fill="none" stroke="blue" stroke-linecap="round" stroke-miterlimit="10"/><line x1="881.23" y1="143.34" x2="921.62" y2="143.34" fill="none" stroke="blue" stroke-miterlimit="10"/><path d="M895.73,212a3.36,3.36,0,1,1,3.79-3.34A3.59,3.59,0,0,1,895.73,212Z" transform="translate(-14.5 -94)" fill="#fff"/><path d="M895.73,205.56a3.11,3.11,0,1,1-3.54,3.08,3.34,3.34,0,0,1,3.54-3.08m0-.5a3.61,3.61,0,1,0,4,3.58,3.83,3.83,0,0,0-4-3.58Z" transform="translate(-14.5 -94)" fill="blue"/><path d="M893,240.67a3.36,3.36,0,1,1,3.79-3.33A3.58,3.58,0,0,1,893,240.67Z" transform="translate(-14.5 -94)" fill="#fff"/><path d="M893,234.25a3.11,3.11,0,1,1-3.54,3.09,3.34,3.34,0,0,1,3.54-3.09m0-.5a3.61,3.61,0,1,0,4,3.59,3.84,3.84,0,0,0-4-3.59Z" transform="translate(-14.5 -94)" fill="blue"/><path d="M903.81,250.24a3.37,3.37,0,1,1,3.79-3.34A3.59,3.59,0,0,1,903.81,250.24Z" transform="translate(-14.5 -94)"/><path d="M903.81,243.81a3.12,3.12,0,1,1-3.54,3.09,3.35,3.35,0,0,1,3.54-3.09m0-.5a3.62,3.62,0,1,0,4,3.59,3.84,3.84,0,0,0-4-3.59Z" transform="translate(-14.5 -94)" fill="blue"/><path d="M898.42,221.54a3.36,3.36,0,1,1,3.79-3.33A3.57,3.57,0,0,1,898.42,221.54Z" transform="translate(-14.5 -94)"/><path d="M898.42,215.12a3.11,3.11,0,1,1-3.53,3.09,3.34,3.34,0,0,1,3.53-3.09m0-.5a3.61,3.61,0,1,0,4,3.59,3.83,3.83,0,0,0-4-3.59Z" transform="translate(-14.5 -94)" fill="blue"/><line x1="945.85" y1="109.86" x2="945.85" y2="123.01" fill="none" stroke="blue" stroke-linecap="round" stroke-miterlimit="10"/><line x1="927" y1="109.86" x2="945.85" y2="109.86" fill="none" stroke="blue" stroke-linecap="round" stroke-miterlimit="10"/><line x1="927" y1="88.34" x2="927" y2="109.86" fill="none" stroke="blue" stroke-miterlimit="10"/><line x1="940.47" y1="121.82" x2="940.47" y2="97.9" fill="none" stroke="blue" stroke-miterlimit="10"/><line x1="951.24" y1="97.9" x2="940.47" y2="97.9" fill="none" stroke="blue" stroke-linecap="round" stroke-miterlimit="10"/><line x1="951.24" y1="81.17" x2="951.24" y2="97.9" fill="none" stroke="blue" stroke-miterlimit="10"/><path d="M941.5,183.29a3.37,3.37,0,1,1,3.79-3.34A3.59,3.59,0,0,1,941.5,183.29Z" transform="translate(-14.5 -94)" fill="#fff"/><path d="M941.5,176.86A3.12,3.12,0,1,1,938,180a3.34,3.34,0,0,1,3.53-3.09m0-.5a3.62,3.62,0,1,0,4,3.59,3.83,3.83,0,0,0-4-3.59Z" transform="translate(-14.5 -94)" fill="blue"/><path d="M965.74,176.11a3.36,3.36,0,1,1,3.79-3.33A3.58,3.58,0,0,1,965.74,176.11Z" transform="translate(-14.5 -94)"/><path d="M965.74,169.69a3.11,3.11,0,1,1-3.54,3.09,3.34,3.34,0,0,1,3.54-3.09m0-.5a3.61,3.61,0,1,0,4,3.59,3.83,3.83,0,0,0-4-3.59Z" transform="translate(-14.5 -94)" fill="blue"/><line x1="951.24" y1="123.01" x2="951.24" y2="107.47" fill="none" stroke="blue" stroke-linecap="round" stroke-miterlimit="10"/><line x1="975.47" y1="81.17" x2="975.47" y2="107.47" fill="none" stroke="blue" stroke-miterlimit="10"/><line x1="975.47" y1="107.47" x2="951.24" y2="107.47" fill="none" stroke="blue" stroke-linecap="round" stroke-miterlimit="10"/><line x1="964.7" y1="76.38" x2="964.7" y2="114.64" fill="none" stroke="blue" stroke-miterlimit="10"/><line x1="956.62" y1="114.64" x2="964.7" y2="114.64" fill="none" stroke="blue" stroke-linecap="round" stroke-miterlimit="10"/><line x1="956.62" y1="121.82" x2="956.62" y2="114.64" fill="none" stroke="blue" stroke-miterlimit="10"/><line x1="959.31" y1="131.38" x2="983.55" y2="131.38" fill="none" stroke="blue" stroke-miterlimit="10"/><line x1="983.55" y1="112.25" x2="983.55" y2="131.38" fill="none" stroke="blue" stroke-linecap="round" stroke-miterlimit="10"/><line x1="1007.78" y1="112.25" x2="983.55" y2="112.25" fill="none" stroke="blue" stroke-miterlimit="10"/><line x1="959.31" y1="124.21" x2="1007.78" y2="124.21" fill="none" stroke="blue" stroke-miterlimit="10"/><line x1="1007.78" y1="138.55" x2="1007.78" y2="124.21" fill="none" stroke="blue" stroke-linecap="round" stroke-miterlimit="10"/><line x1="1021.24" y1="138.55" x2="1007.78" y2="138.55" fill="none" stroke="blue" stroke-miterlimit="10"/><path d="M1038.43,235.89a3.36,3.36,0,1,1,3.79-3.34A3.59,3.59,0,0,1,1038.43,235.89Z" transform="translate(-14.5 -94)" fill="#fff"/><path d="M1038.43,229.47a3.11,3.11,0,1,1-3.53,3.08,3.33,3.33,0,0,1,3.53-3.08m0-.5a3.61,3.61,0,1,0,4,3.58,3.82,3.82,0,0,0-4-3.58Z" transform="translate(-14.5 -94)" fill="blue"/><ellipse cx="975.47" cy="78.78" rx="3.79" ry="3.34" fill="#fff"/><path d="M990,169.69a3.11,3.11,0,1,1-3.54,3.09,3.34,3.34,0,0,1,3.54-3.09m0-.5a3.61,3.61,0,1,0,4,3.59,3.83,3.83,0,0,0-4-3.59Z" transform="translate(-14.5 -94)" fill="blue"/><path d="M1025,209.59a3.36,3.36,0,1,1,3.79-3.34A3.59,3.59,0,0,1,1025,209.59Z" transform="translate(-14.5 -94)"/><path d="M1025,203.16a3.12,3.12,0,1,1-3.54,3.09,3.34,3.34,0,0,1,3.54-3.09m0-.5a3.62,3.62,0,1,0,4,3.59,3.84,3.84,0,0,0-4-3.59Z" transform="translate(-14.5 -94)" fill="blue"/><line x1="986.24" y1="164.86" x2="986.24" y2="140.95" fill="none" stroke="blue" stroke-linecap="round" stroke-miterlimit="10"/><line x1="959.31" y1="140.95" x2="986.24" y2="140.95" fill="none" stroke="blue" stroke-miterlimit="10"/><line x1="999.7" y1="164.86" x2="986.24" y2="164.86" fill="none" stroke="blue" stroke-miterlimit="10"/><path d="M1016.89,262.19a3.36,3.36,0,1,1,3.79-3.33A3.58,3.58,0,0,1,1016.89,262.19Z" transform="translate(-14.5 -94)" fill="#fff"/><path d="M1016.89,255.77a3.11,3.11,0,1,1-3.53,3.09,3.34,3.34,0,0,1,3.53-3.09m0-.5a3.61,3.61,0,1,0,4,3.59,3.83,3.83,0,0,0-4-3.59Z" transform="translate(-14.5 -94)" fill="blue"/><line x1="959.31" y1="136.16" x2="994.32" y2="136.16" fill="none" stroke="blue" stroke-miterlimit="10"/><line x1="994.32" y1="155.29" x2="994.32" y2="136.16" fill="none" stroke="blue" stroke-linecap="round" stroke-miterlimit="10"/><line x1="1018.55" y1="155.29" x2="994.32" y2="155.29" fill="none" stroke="blue" stroke-miterlimit="10"/><ellipse cx="1021.24" cy="155.29" rx="3.79" ry="3.34"/><path d="M1035.74,246.21a3.11,3.11,0,1,1-3.54,3.08,3.34,3.34,0,0,1,3.54-3.08m0-.5a3.61,3.61,0,1,0,4,3.58,3.83,3.83,0,0,0-4-3.58Z" transform="translate(-14.5 -94)" fill="blue"/><path d="M979.2,171.33A3.36,3.36,0,1,1,983,168,3.59,3.59,0,0,1,979.2,171.33Z" transform="translate(-14.5 -94)"/><path d="M979.2,164.91a3.11,3.11,0,1,1-3.54,3.08,3.34,3.34,0,0,1,3.54-3.08m0-.5a3.61,3.61,0,1,0,4,3.58,3.83,3.83,0,0,0-4-3.58Z" transform="translate(-14.5 -94)" fill="blue"/><ellipse cx="842.87" cy="91.64" rx="4.71" ry="4.85" fill="#fff" stroke="blue" stroke-miterlimit="10"/><ellipse cx="842.87" cy="91.64" rx="2.35" ry="2.43" stroke="#000" stroke-miterlimit="10"/><ellipse cx="865.87" cy="64.64" rx="4.71" ry="4.85" fill="#fff" stroke="blue" stroke-miterlimit="10"/><ellipse cx="865.87" cy="64.64" rx="2.35" ry="2.43" stroke="#000" stroke-miterlimit="10"/><ellipse cx="870.87" cy="51.64" rx="4.71" ry="4.85" fill="#fff" stroke="blue" stroke-miterlimit="10"/><ellipse cx="870.87" cy="51.64" rx="2.35" ry="2.43" stroke="#000" stroke-miterlimit="10"/><ellipse cx="906.87" cy="183.64" rx="4.71" ry="4.85" fill="#fff" stroke="blue" stroke-miterlimit="10"/><ellipse cx="906.87" cy="183.64" rx="2.35" ry="2.43" stroke="#000" stroke-miterlimit="10"/><ellipse cx="936.64" cy="193.63" rx="4.71" ry="4.85" fill="#fff" stroke="blue" stroke-miterlimit="10"/><ellipse cx="936.64" cy="193.63" rx="2.35" ry="2.43" stroke="#000" stroke-miterlimit="10"/><ellipse cx="1016.82" cy="51.34" rx="4.71" ry="4.85" fill="#fff" stroke="blue" stroke-miterlimit="10"/><ellipse cx="1016.82" cy="51.34" rx="2.35" ry="2.43" stroke="#000" stroke-miterlimit="10"/><ellipse cx="1023.82" cy="65.34" rx="4.71" ry="4.85" fill="#fff" stroke="blue" stroke-miterlimit="10"/><ellipse cx="1023.82" cy="65.34" rx="2.35" ry="2.43" stroke="#000" stroke-miterlimit="10"/><ellipse cx="999.82" cy="183.34" rx="4.71" ry="4.85" fill="#fff" stroke="blue" stroke-miterlimit="10"/><ellipse cx="999.82" cy="183.34" rx="2.35" ry="2.43" stroke="#000" stroke-miterlimit="10"/><ellipse cx="975.04" cy="195.36" rx="6.17" ry="6.36" fill="#fff" stroke="blue" stroke-miterlimit="10"/><ellipse cx="975.04" cy="195.36" rx="3.08" ry="3.18" stroke="#000" stroke-miterlimit="10"/></svg>